<?xml version="1.0" standalone="no"?>
<!DOCTYPE svg PUBLIC "-//W3C//DTD SVG 20010904//EN"
 "http://www.w3.org/TR/2001/REC-SVG-20010904/DTD/svg10.dtd">
<svg version="1.0" xmlns="http://www.w3.org/2000/svg"
 width="512.000000pt" height="512.000000pt" viewBox="0 0 512.000000 512.000000"
 preserveAspectRatio="xMidYMid meet">

<g transform="translate(0.000000,512.000000) scale(0.100000,-0.100000)"
fill="#000000" stroke="none">
<path d="M396 5104 c-140 -34 -272 -137 -335 -262 -65 -128 -61 19 -61 -2278
0 -1374 3 -2110 10 -2145 27 -142 133 -287 259 -353 134 -70 -29 -66 2291 -66
2320 0 2157 -4 2291 66 126 66 232 211 259 353 14 74 14 4208 0 4282 -36 193
-196 358 -391 404 -93 22 -4232 21 -4323 -1z m399 -585 c60 -15 119 -68 142
-127 14 -38 18 -75 18 -187 0 -124 -3 -145 -22 -181 -62 -116 -197 -157 -313
-96 -42 21 -59 39 -84 82 -31 55 -31 56 -31 205 0 135 2 154 22 190 54 101
153 143 268 114z m1390 -23 c28 -17 55 -44 72 -74 27 -45 28 -54 31 -194 4
-139 2 -150 -21 -201 -77 -169 -325 -171 -403 -3 -22 46 -24 65 -24 192 0 134
1 143 28 194 15 30 39 62 53 73 74 54 185 59 264 13z m2270 23 c24 -6 62 -26
83 -45 58 -50 74 -97 79 -244 5 -114 8 -131 36 -189 28 -58 31 -72 31 -165 0
-77 -6 -119 -23 -176 -32 -104 -100 -253 -165 -365 -50 -84 -56 -100 -56 -150
0 -31 -5 -65 -10 -76 -11 -20 -59 -26 -76 -9 -6 6 -23 -8 -49 -43 -161 -217
-492 -562 -760 -791 -286 -245 -717 -553 -1065 -761 -279 -166 -733 -376 -990
-457 l-45 -15 -5 -206 c-4 -178 -7 -209 -22 -224 -14 -13 -23 -15 -45 -7 l-28
9 -3 199 -2 198 -23 -6 c-34 -11 -266 -55 -318 -61 l-46 -6 -5 -98 c-4 -84 -9
-106 -32 -145 -40 -68 -93 -100 -176 -104 -110 -7 -178 28 -223 112 -20 37
-22 57 -24 207 -1 166 -1 166 -31 219 -138 242 18 644 453 1165 50 61 137 158
193 216 l101 106 11 107 c11 108 45 258 77 337 12 30 13 44 5 47 -54 18 -114
87 -132 151 -14 49 -11 279 3 316 39 100 106 145 216 145 55 0 75 -5 119 -31
44 -25 58 -40 79 -85 l25 -54 51 46 c126 114 344 237 502 282 243 71 519 77
746 15 l56 -15 69 35 c352 176 793 321 1040 342 l81 7 7 59 c16 159 138 246
291 208z m-3021 -21 c14 -19 16 -63 16 -279 0 -237 -1 -259 -19 -280 -16 -20
-23 -22 -47 -14 l-29 10 -3 280 c-2 254 -1 281 15 293 25 18 50 15 67 -10z
m1174 -230 c19 -19 15 -66 -7 -78 -41 -22 -81 1 -81 45 0 38 60 61 88 33z
m213 2 c23 -13 25 -53 3 -74 -32 -32 -84 -11 -84 34 0 42 39 62 81 40z m221
-7 c22 -20 23 -41 1 -65 -23 -26 -59 -23 -79 7 -15 23 -15 27 0 50 19 29 51
32 78 8z m219 7 c29 -16 26 -67 -6 -82 -38 -17 -75 3 -75 41 0 43 39 63 81 41z
m221 -7 c22 -20 23 -41 1 -65 -23 -26 -59 -23 -79 7 -15 23 -15 27 0 50 19 29
51 32 78 8z m216 5 c31 -31 4 -88 -42 -88 -20 0 -46 28 -46 50 0 40 60 66 88
38z m-2938 -607 c15 -29 14 -543 -2 -559 -7 -7 -24 -12 -38 -12 -14 0 -31 5
-38 12 -17 17 -17 549 0 566 19 19 66 15 78 -7z m3725 -800 c96 -45 127 -108
133 -272 6 -150 -11 -215 -71 -275 -104 -103 -279 -80 -351 46 -31 55 -31 56
-31 205 0 145 1 152 28 200 28 51 74 90 123 105 50 15 127 11 169 -9z m-3667
-7 c47 -19 88 -58 115 -109 19 -36 21 -56 22 -190 0 -136 -2 -154 -22 -191
-42 -79 -116 -124 -203 -124 -86 0 -156 41 -197 115 -27 48 -28 55 -28 200 0
149 0 150 31 205 25 43 42 61 84 83 61 32 138 36 198 11z m3007 -711 c-149
-434 -506 -757 -951 -863 -82 -19 -312 -46 -334 -38 -6 2 84 66 199 142 367
240 753 524 1006 740 55 46 101 85 102 85 1 1 -9 -29 -22 -66z m607 -178 c17
-37 -3 -75 -40 -75 -47 0 -66 36 -42 81 16 29 67 26 82 -6z m0 -220 c17 -38
-3 -75 -41 -75 -32 0 -51 22 -51 57 0 47 72 61 92 18z m-2291 -546 c56 -19
100 -59 125 -113 22 -46 24 -64 24 -191 0 -119 -3 -147 -21 -185 -26 -58 -44
-77 -101 -106 -113 -57 -252 -12 -304 100 -22 46 -24 64 -24 191 0 127 2 145
24 191 25 53 74 99 123 114 41 12 115 12 154 -1z m2283 -25 c14 -13 16 -53 16
-281 0 -234 -2 -269 -17 -285 -20 -22 -46 -23 -67 -2 -14 13 -16 53 -16 281 0
234 2 269 17 285 20 22 46 23 67 2z m-1819 -258 c31 -47 -22 -93 -70 -62 -29
19 -32 42 -8 68 23 26 59 23 78 -6z m228 3 c28 -44 -25 -95 -72 -69 -24 12
-29 58 -9 78 17 17 68 11 81 -9z m211 2 c35 -39 -16 -97 -62 -72 -46 25 -29
91 23 91 12 0 30 -9 39 -19z m224 7 c28 -28 2 -88 -38 -88 -40 0 -66 60 -38
88 15 15 61 15 76 0z m216 -4 c23 -23 20 -51 -9 -70 -48 -31 -101 15 -70 62
18 28 56 32 79 8z m214 4 c22 -22 14 -67 -13 -80 -48 -22 -100 43 -63 80 15
15 61 15 76 0z"/>
<path d="M651 4404 c-17 -14 -35 -42 -41 -62 -15 -55 -13 -226 4 -266 45 -109
204 -101 236 12 13 48 13 206 0 254 -16 55 -61 88 -120 88 -37 0 -55 -6 -79
-26z"/>
<path d="M2003 4420 c-13 -5 -32 -24 -43 -42 -17 -28 -20 -51 -20 -161 0 -137
9 -171 52 -201 29 -20 100 -20 138 -1 50 26 60 59 60 200 0 141 -10 174 -60
200 -32 16 -92 19 -127 5z"/>
<path d="M4305 4397 c-24 -24 -35 -46 -40 -79 -4 -26 -4 -51 -1 -56 3 -5 33
-13 67 -16 54 -6 94 -18 172 -51 15 -6 17 -1 17 50 0 125 -43 185 -132 185
-43 0 -54 -4 -83 -33z"/>
<path d="M3608 3805 c-98 -16 -318 -74 -318 -84 0 -3 31 -26 68 -51 87 -59
224 -194 299 -296 63 -86 144 -234 171 -314 10 -27 21 -50 27 -51 17 -4 130
175 174 275 70 160 84 278 45 373 -21 50 -88 109 -149 132 -73 27 -207 34
-317 16z"/>
<path d="M1345 3613 c-26 -7 -54 -32 -71 -65 -20 -39 -19 -259 1 -298 16 -30
51 -60 71 -60 7 0 27 26 44 58 18 31 52 85 76 118 37 51 44 69 44 108 0 109
-64 163 -165 139z"/>
<path d="M1196 2140 c-66 -92 -146 -248 -172 -335 -22 -75 -23 -197 -2 -246
26 -59 78 -110 145 -141 58 -26 72 -28 187 -28 85 0 154 6 221 20 108 22 206
49 217 59 4 4 -19 26 -53 51 -81 59 -233 219 -294 310 -66 99 -126 221 -156
314 -13 42 -27 76 -30 76 -3 0 -32 -36 -63 -80z"/>
<path d="M600 878 c0 -122 12 -158 60 -183 59 -31 130 -11 164 45 11 20 16 52
16 107 l0 80 -67 12 c-38 7 -92 20 -120 30 l-53 18 0 -109z"/>
<path d="M4311 2754 c-39 -33 -51 -77 -51 -196 0 -155 34 -208 133 -208 56 0
102 34 117 88 13 48 13 206 0 254 -16 55 -61 88 -120 88 -37 0 -55 -6 -79 -26z"/>
<path d="M650 2743 c-19 -17 -35 -44 -40 -68 -15 -62 -12 -221 4 -259 45 -109
204 -101 236 12 13 48 13 206 0 254 -24 86 -135 119 -200 61z"/>
<path d="M1992 1094 c-43 -30 -52 -64 -52 -199 0 -141 10 -174 60 -200 62 -32
146 -11 175 45 11 21 15 62 15 155 0 141 -10 174 -60 200 -38 19 -109 19 -138
-1z"/>
</g>
</svg>
