<?xml version="1.0" standalone="no"?>
<!DOCTYPE svg PUBLIC "-//W3C//DTD SVG 20010904//EN"
 "http://www.w3.org/TR/2001/REC-SVG-20010904/DTD/svg10.dtd">
<svg version="1.0" xmlns="http://www.w3.org/2000/svg"
 width="64.000000pt" height="64.000000pt" viewBox="0 0 64.000000 64.000000"
 preserveAspectRatio="xMidYMid meet">

<g transform="translate(0.000000,64.000000) scale(0.100000,-0.100000)"
fill="#000000" stroke="none">
<path d="M20 620 c-19 -19 -20 -33 -20 -300 0 -267 1 -281 20 -300 19 -19 33
-20 300 -20 267 0 281 1 300 20 19 19 20 33 20 300 0 267 -1 281 -20 300 -19
19 -33 20 -300 20 -267 0 -281 -1 -300 -20z m98 -96 c-3 -14 -5 -12 -10 9 -3
19 -2 25 4 19 6 -6 8 -18 6 -28z m59 -11 c-3 -10 -5 -2 -5 17 0 19 2 27 5 18
2 -10 2 -26 0 -35z m65 15 c-4 -28 -3 -31 18 -25 16 4 20 3 12 -5 -16 -16 -42
-1 -42 25 0 19 7 37 15 37 1 0 -1 -14 -3 -32z m38 22 c0 -5 -2 -10 -4 -10 -3
0 -8 5 -11 10 -3 6 -1 10 4 10 6 0 11 -4 11 -10z m254 -5 c-4 -8 -1 -16 5 -16
6 -1 17 -2 24 -3 20 -2 20 -62 -1 -103 -23 -44 -134 -154 -205 -202 -26 -18
-77 -46 -112 -63 -55 -25 -65 -34 -66 -56 -2 -24 -2 -24 -6 -4 -3 15 -11 22
-29 22 -14 0 -24 -6 -24 -14 0 -7 -7 -19 -16 -26 -24 -21 -44 8 -47 66 -2 41
3 59 26 92 31 47 33 54 13 46 -8 -3 -17 -1 -20 4 -3 5 2 9 12 8 12 -1 17 6 17
24 0 18 -5 25 -19 23 -13 -1 -15 2 -7 10 16 16 44 -12 38 -40 -6 -32 5 -29 27
8 13 22 17 42 12 67 -4 26 -3 32 4 22 9 -13 11 -13 20 0 14 22 12 40 -4 40 -8
0 -17 -6 -19 -12 -4 -10 -6 -10 -6 0 -1 18 27 26 43 13 10 -8 16 -8 25 3 15
17 85 36 131 35 41 -1 161 39 173 58 11 18 18 16 11 -2z m36 5 c0 -5 -2 -10
-4 -10 -3 0 -8 5 -11 10 -3 6 -1 10 4 10 6 0 11 -4 11 -10z m-469 -58 c-7 -2
-18 1 -23 6 -8 8 -4 9 13 5 13 -4 18 -8 10 -11z m463 -141 c3 -5 -2 -8 -12 -7
-12 1 -17 -6 -17 -24 0 -18 5 -25 19 -23 13 1 15 -2 7 -10 -13 -13 -41 8 -41
32 0 29 32 52 44 32z m-108 -123 c-18 -27 -85 -68 -111 -68 -10 0 12 22 51 49
38 27 70 47 72 46 2 -2 -3 -14 -12 -27z m-182 -87 c4 -5 -3 -7 -14 -4 -23 6
-26 13 -6 13 8 0 17 -4 20 -9z m273 -48 c-3 -10 -5 -2 -5 17 0 19 2 27 5 18 2
-10 2 -26 0 -35z m-305 12 c3 -13 1 -22 -3 -19 -9 5 -13 44 -5 44 2 0 6 -11 8
-25z"/>
<path d="M427 472 c-16 -7 -14 -11 13 -37 16 -16 30 -35 30 -42 0 -19 18 -16
30 6 31 59 -8 98 -73 73z"/>
<path d="M135 246 c-20 -46 -7 -76 33 -76 47 0 50 12 15 64 l-33 48 -15 -36z"/>
<path d="M72 103 c2 -10 10 -18 18 -18 8 0 16 8 18 18 2 12 -3 17 -18 17 -15
0 -20 -5 -18 -17z"/>
</g>
</svg>
